<svg xmlns="http://www.w3.org/2000/svg" viewBox="0 0 100 100">
  <defs>
    <linearGradient id="dockerGradient" x1="0%" y1="0%" x2="100%" y2="100%">
      <stop offset="0%" style="stop-color:#3b82f6;stop-opacity:1" />
      <stop offset="50%" style="stop-color:#06b6d4;stop-opacity:1" />
      <stop offset="100%" style="stop-color:#475569;stop-opacity:1" />
    </linearGradient>
  </defs>
  <rect width="100" height="100" rx="20" fill="url(#dockerGradient)"/>
  <g transform="translate(50,50)">
    <!-- Docker Whale Body -->
    <ellipse cx="0" cy="5" rx="25" ry="18" fill="#0db7ed" opacity="0.95"/>
    <!-- Docker Whale Belly -->
    <ellipse cx="0" cy="8" rx="20" ry="12" fill="#ffffff" opacity="0.9"/>
    <!-- Docker Whale Tail -->
    <path d="M -25,5 Q -35,0 -35,-5 Q -35,-10 -30,-8 Q -28,-5 -25,5" fill="#0db7ed" opacity="0.95"/>
    <!-- Docker Whale Eye -->
    <circle cx="-8" cy="0" r="3" fill="#ffffff"/>
    <circle cx="-8" cy="0" r="1.5" fill="#0db7ed"/>
    <!-- Docker Whale Spout -->
    <ellipse cx="15" cy="-8" rx="3" ry="8" fill="#ffffff" opacity="0.7"/>
    <ellipse cx="18" cy="-12" rx="2" ry="6" fill="#ffffff" opacity="0.5"/>
    <!-- Docker Container Boxes on Whale -->
    <rect x="-5" y="-2" width="8" height="8" rx="1" fill="#0db7ed" opacity="0.8"/>
    <rect x="5" y="-2" width="8" height="8" rx="1" fill="#0db7ed" opacity="0.8"/>
    <rect x="0" y="8" width="8" height="8" rx="1" fill="#0db7ed" opacity="0.8"/>
  </g>
</svg>
